<svg xmlns="http://www.w3.org/2000/svg" viewBox="0 0 1000 1000"><defs><style>.cls-1{fill:#fff;}</style></defs><title>Logo</title><g id="Elipse"><circle class="cls-1" cx="500" cy="500" r="500"/></g><g id="Logo"><path d="M387,464.09,538.4,812.53h16.67l213.16-520q18.46-45.53,42.36-67.6,16.67-14.88,49.12-20.73V187.47H671.34v16.68c3.6.6,6.15,1.06,7.66,1.35q31.1,5,44.16,16.9t13.07,25q0,20.28-21.18,72.56L570.84,673.73,386.09,248l.89,216.1"/><path d="M213.3,187.47v16.68h22.08a82.9,82.9,0,0,1,41,10.81q14.42,8.11,18.93,19.38c2.33,5.93,4,15.66,4.9,29.13q.94,13.54.95,32.16v417.3q0,37.86-10.59,52.73t-22.75,14.87q-16.23,0-26.59-24.34-17.58-41-29.07-50.47a39.68,39.68,0,0,0-25.91-9.46q-19.84,0-34.7,14-11.28,11.26-11.27,33.35,0,27,24.34,48t66.69,21q52.28,0,89.23-31.78t52.05-74.58q15.09-42.81,15.1-111.76V295.63q0-55,10.81-69.4,17.13-22.08,54.53-22.08H463V187.47Z"/></g></svg>