<?xml version="1.0" encoding="UTF-8" standalone="no"?>
<!-- Created with Inkscape (http://www.inkscape.org/) -->

<svg
   width="1000"
   height="893.25476"
   viewBox="0 0 1000 893.25476"
   version="1.1"
   id="SVGRoot"
   sodipodi:docname="Plain.svg"
   xml:space="preserve"
   inkscape:version="1.2.1 (9c6d41e410, 2022-07-14)"
   xmlns:inkscape="http://www.inkscape.org/namespaces/inkscape"
   xmlns:sodipodi="http://sodipodi.sourceforge.net/DTD/sodipodi-0.dtd"
   xmlns="http://www.w3.org/2000/svg"
   xmlns:svg="http://www.w3.org/2000/svg"><sodipodi:namedview
     id="namedview137"
     pagecolor="#505050"
     bordercolor="#eeeeee"
     borderopacity="1"
     inkscape:showpageshadow="0"
     inkscape:pageopacity="0"
     inkscape:pagecheckerboard="0"
     inkscape:deskcolor="#505050"
     inkscape:document-units="px"
     showgrid="false"
     inkscape:zoom="0.52724989"
     inkscape:cx="495.96976"
     inkscape:cy="470.3652"
     inkscape:window-width="1920"
     inkscape:window-height="1017"
     inkscape:window-x="1912"
     inkscape:window-y="-8"
     inkscape:window-maximized="1"
     inkscape:current-layer="layer1"
     inkscape:lockguides="false" /><defs
     id="defs132"><inkscape:path-effect
       effect="powerstroke"
       id="path-effect1798"
       is_visible="true"
       lpeversion="1"
       offset_points="0.099300264,5.5860989 | 1.2284362,23.596061 | 1.8839093,13.580543"
       not_jump="false"
       sort_points="true"
       interpolator_type="CentripetalCatmullRom"
       interpolator_beta="1"
       start_linecap_type="zerowidth"
       linejoin_type="round"
       miter_limit="4"
       scale_width="1"
       end_linecap_type="zerowidth" /><inkscape:path-effect
       effect="powerstroke"
       id="path-effect1796"
       is_visible="true"
       lpeversion="1"
       offset_points="0.061734987,6.9550515 | 0.80331077,21.498037 | 1.8178908,5.224531"
       not_jump="false"
       sort_points="true"
       interpolator_type="CentripetalCatmullRom"
       interpolator_beta="0"
       start_linecap_type="zerowidth"
       linejoin_type="round"
       miter_limit="4"
       scale_width="1"
       end_linecap_type="zerowidth" /><inkscape:path-effect
       effect="skeletal"
       id="path-effect1794"
       is_visible="true"
       lpeversion="1"
       pattern="M 0,0 H 1"
       copytype="single_stretched"
       prop_scale="50"
       scale_y_rel="false"
       spacing="3.3"
       normal_offset="0"
       tang_offset="0"
       prop_units="false"
       vertical_pattern="false"
       hide_knot="false"
       fuse_tolerance="1.1" /></defs><g
     inkscape:label="Layer 1"
     inkscape:groupmode="layer"
     id="layer1"
     transform="translate(1.7014013e-5)"><g
       id="g1373"
       transform="matrix(1.5562127,0,0,1.5562127,-243.51253,-290.93258)"
       style="stroke-width:38.5551;stroke-dasharray:none"><path
         style="fill-rule:nonzero;stroke:none;stroke-width:38.5551;stroke-linecap:round;stroke-linejoin:round;stroke-dasharray:none;stroke-dashoffset:0;stroke-opacity:1"
         d="m 460.00507,260.75848 c -1.0282,0.18753 -4.83421,1.04975 -5.96792,6.30423 -0.71692,3.32275 -0.96648,8.945 -0.55965,19.91366 0.44747,12.0645 1.41567,25.61438 2.81355,48.85599 2.26837,37.71477 5.52647,98.89696 2.0633,160.36611 -1.63416,29.00534 -4.72789,57.72283 -9.92212,84.50038 -5.34268,27.54284 -12.6394,51.63998 -22.02286,71.67297 -4.16849,8.89941 -8.65752,16.80143 -13.42944,23.76323 -0.8341,1.21689 -1.68399,2.41627 -2.55008,3.59698 -5.65761,7.71284 -11.99393,14.61292 -19.14078,20.41218 -6.72819,5.45953 -14.2881,10.03754 -22.89613,13.41785 -8.26028,3.24375 -17.74129,5.48537 -28.72494,6.2174 -38.12478,2.61877 -67.54781,-3.12824 -90.65463,-13.63594 -23.34804,-10.6174 -39.93588,-25.97554 -51.96953,-41.31325 -13.99702,-17.84017 -22.27663,-36.40467 -26.38867,-46.22773 -1.59821,-3.81788 -2.959,-7.30008 -3.86784,-9.65365 -4.15128,-10.75022 -6.32572,-12.21843 -7.19373,-12.1493 v 0 c -0.6385,0.0509 -3.61847,1.64395 -3.04247,14.24766 0.1281,2.80302 0.41139,6.52313 1.03348,11.05633 1.56569,11.40925 5.99177,32.95508 18.87421,56.2005 10.93841,19.73757 28.57448,41.6892 56.66143,58.0975 28.0576,16.39115 63.982,25.72903 108.50206,24.4184 15.08355,-0.50812 28.91428,-3.20811 41.53599,-7.77164 13.15727,-4.75716 24.72571,-11.43994 34.83979,-19.41031 10.68,-8.41635 19.63887,-18.18308 27.1729,-28.53112 1.15349,-1.58431 2.27406,-3.18303 3.36272,-4.79354 6.22278,-9.20564 11.75896,-19.2968 16.65199,-30.18073 10.93839,-24.33111 18.49921,-52.26336 23.41813,-82.27332 4.79597,-29.25986 7.00242,-60.03036 7.47407,-90.32256 1.01123,-64.94787 -5.74653,-125.20282 -11.99052,-164.74163 -3.48603,-22.07457 -6.93669,-38.35859 -9.65957,-48.89761 -2.76855,-10.71575 -4.93662,-16.23086 -6.67261,-19.13829 -2.81566,-4.71565 -6.74073,-4.18485 -7.75013,-4.00075 z"
         id="path500"
         sodipodi:nodetypes="csc"
         inkscape:path-effect="#path-effect1796"
         inkscape:original-d="m 460.00507,260.75848 c 0,0 85.68278,469.7773 -119.35991,479.54124 C 171.6637,748.34646 159.5936,596.79959 159.5936,596.79959" /><path
         style="fill-rule:nonzero;stroke:none;stroke-width:38.5551;stroke-linecap:round;stroke-linejoin:round;stroke-dasharray:none;stroke-opacity:1"
         d="m 241.40208,402.3368 c 0.56424,0.67092 2.70061,2.66117 10.02255,-0.98809 6.24529,-3.11266 15.03917,-8.75867 37.64235,-23.41705 19.77403,-12.82365 55.90453,-36.30726 96.71797,-59.3505 38.5107,-21.74311 83.59707,-44.5372 129.80815,-61.37486 22.75073,-8.28954 45.17039,-14.91497 66.85036,-19.37486 22.46255,-4.62087 43.38237,-6.76276 62.63653,-6.36388 21.56505,0.20869 38.79826,2.4966 52.48031,6.05361 14.348,3.73015 24.59473,8.80142 31.93403,14.19024 7.7535,5.69294 12.77408,12.10731 16.09684,18.78718 2.3908,4.80633 4.05385,10.06025 5.07111,15.7297 0.55456,3.0907 0.92664,6.38244 1.09797,9.88397 0.49429,10.10255 -0.69309,21.75294 -3.80138,34.92365 -3.08291,13.06318 -7.96616,27.24299 -14.58158,42.33487 -13.41204,30.59711 -33.33097,63.56168 -57.54326,96.64519 -25.39173,34.69508 -54.66969,68.4003 -84.86761,99.07445 -33.79314,34.32608 -67.63715,63.7744 -98.80108,87.76509 -39.95666,30.75952 -73.35905,50.96817 -99.0721,64.64151 -2.30334,1.22484 -4.53927,2.39446 -6.70765,3.51265 -14.7943,7.62911 -27.51233,13.69927 -38.67547,18.54086 -19.85911,8.61314 -34.06533,12.96729 -42.57998,14.44897 8.33652,1.45068 23.80185,4.49215 46.82082,2.12276 12.9513,-1.3331 28.00921,-4.35561 44.96161,-10.07447 2.48559,-0.83851 5.04245,-1.73961 7.67014,-2.70697 29.36413,-10.81014 66.56464,-29.55035 110.05556,-59.69244 33.909,-23.50119 70.35667,-53.0864 106.54993,-88.01736 32.31841,-31.19125 63.7709,-66.03444 91.21831,-102.43236 26.07575,-34.57897 48.35764,-70.33957 63.78882,-104.86162 7.64134,-17.09491 13.65054,-33.99295 17.58656,-50.37958 3.95921,-16.48317 5.87338,-32.66792 5.12013,-48.14436 -0.26296,-5.40274 -0.85155,-10.72893 -1.79573,-15.95466 -1.73447,-9.59981 -4.76973,-19.30673 -9.54644,-28.63744 -6.83324,-13.34789 -16.98336,-25.45858 -31.03326,-35.34098 -13.0312,-9.16588 -28.97609,-16.1114 -48.00094,-20.6447 -18.06904,-4.30555 -39.0949,-6.48037 -63.44554,-6.2726 -23.2019,0.39759 -47.32459,4.00387 -71.99267,10.2325 -23.82041,6.01461 -47.83097,14.39443 -71.51771,24.37929 -47.99526,20.23182 -93.61598,46.61487 -131.40396,71.39627 -41.32493,27.10093 -73.76838,52.5665 -93.06528,68.83322 -19.9844,16.84626 -28.8565,26.08674 -32.69351,30.85157 -5.2151,6.47614 -3.53245,9.05394 -3.0049,9.68123 z"
         id="path1369"
         sodipodi:nodetypes="csc"
         inkscape:path-effect="#path-effect1798"
         inkscape:original-d="m 241.40208,402.3368 c 0,0 229.6361,-193.12166 403.67793,-193.12166 359.95589,0 -115.86525,548.78436 -339.94987,548.78436" /></g></g></svg>
