<?xml version="1.0" encoding="UTF-8" standalone="no"?>
<svg
   class="separator__wave"
   viewBox="0 0 7776 45"
   version="1.1"
   id="svg1195"
   sodipodi:docname="wave.svg"
   inkscape:version="1.2.1 (9c6d41e410, 2022-07-14)"
   xmlns:inkscape="http://www.inkscape.org/namespaces/inkscape"
   xmlns:sodipodi="http://sodipodi.sourceforge.net/DTD/sodipodi-0.dtd"
   xmlns="http://www.w3.org/2000/svg"
   xmlns:svg="http://www.w3.org/2000/svg">
  <defs
     id="defs1199" />
  <sodipodi:namedview
     id="namedview1197"
     pagecolor="#505050"
     bordercolor="#eeeeee"
     borderopacity="1"
     inkscape:showpageshadow="0"
     inkscape:pageopacity="0"
     inkscape:pagecheckerboard="0"
     inkscape:deskcolor="#505050"
     showgrid="false"
     inkscape:zoom="1.244856"
     inkscape:cx="312.0843"
     inkscape:cy="40.968595"
     inkscape:window-width="1920"
     inkscape:window-height="1017"
     inkscape:window-x="-8"
     inkscape:window-y="-8"
     inkscape:window-maximized="1"
     inkscape:current-layer="svg1195" />
  <path
     d="M7776,82V63.89c-37.19-12-56.16-27-126-26.89-85.35.11-107,22.11-199.77,22.75-92.5.63-108.5-22.68-188-13.08-57.63,7-68.53,20.5-126,23.14-74.17,3.39-86.7-17.77-160-16.1-78.41,1.79-84.11,26.47-158,27.16-70.89.66-77.19-22-162-27.16-81.76-5-90.37,15.11-180,13.08-103.24-2.34-116-29.6-190-23.14-79.51,6.94-90.06,40.65-158,38.23-52.8-1.88-65.42-22.92-120-20.12-40.65,2.08-45.84,14.89-90,15.09-38.62.16-72.1-9.06-86.23-13-37.19-12-56.16-27-126-26.89-85.35.11-107,22.11-199.77,22.75-92.5.63-108.5-22.68-188-13.08-57.63,7-68.53,20.5-126,23.14-74.17,3.39-86.7-17.77-160-16.1-78.41,1.79-84.11,26.47-158,27.16-70.89.66-77.19-22-162-27.16-81.76-5-90.37,15.11-180,13.08-103.24-2.34-116-29.6-190-23.14-79.51,6.94-90.06,40.65-158,38.23-52.8-1.88-65.42-22.92-120-20.12-40.65,2.08-45.84,14.89-90,15.09-38.62.16-72.1-9.06-86.23-13-37.19-12-56.16-27-126-26.89-85.35.11-107,22.11-199.77,22.75-92.5.63-108.5-22.68-188-13.08-57.63,7-68.53,20.5-126,23.14-74.17,3.39-86.7-17.77-160-16.1-78.41,1.79-84.11,26.47-158,27.16-70.89.66-77.19-22-162-27.16-81.76-5-90.37,15.11-180,13.08-103.24-2.34-116-29.6-190-23.14-79.51,6.94-90.06,40.65-158,38.23-52.8-1.88-65.42-22.92-120-20.12-40.65,2.08-45.84,14.89-90,15.09-38.62.16-72.1-9.06-86.23-13-37.19-12-56.16-27-126-26.89-85.35.11-107,22.11-199.77,22.75-92.5.63-108.5-22.68-188-13.08-57.63,7-68.53,20.5-126,23.14-74.17,3.39-86.7-17.77-160-16.1-78.41,1.79-84.11,26.47-158,27.16-70.89.66-77.19-22-162-27.16-81.76-5-90.37,15.11-180,13.08-103.24-2.34-116-29.6-190-23.14-79.51,6.94-90.06,40.65-158,38.23C243.43,80,230.81,59,176.23,61.76c-40.65,2.08-45.84,14.89-90,15.09C47.61,77,14.13,67.79,0,63.89V82Z"
     id="path1193"
     transform="translate(0 -37)" />
</svg>
